<svg width="24" height="24" viewBox="0 0 24 24" fill="none" xmlns="http://www.w3.org/2000/svg">
<path d="M22 5H20V7H22V5Z" fill="#1028FF"/>
<path fill-rule="evenodd" clip-rule="evenodd" d="M15 15H21V13H15C14.4477 13 14 12.5523 14 12C14 11.4477 14.4477 11 15 11H20V9H14C13.4477 9 13 8.55229 13 8C13 7.44772 13.4477 7 14 7H18V5H7C3.13401 5 0 8.13401 0 12C0 15.866 3.13401 19 7 19H18V17H15C14.4477 17 14 16.5523 14 16C14 15.4477 14.4477 15 15 15ZM12 12C12 9.23858 9.76142 7 7 7C4.23857 7 2 9.23858 2 12C2 14.7614 4.23857 17 7 17C9.76142 17 12 14.7614 12 12Z" fill="#1028FF"/>
<path d="M21.5 9H24V11H21.5V9Z" fill="#1028FF"/>
<path d="M21.5 17H19V19H21.5V17Z" fill="#1028FF"/>
<path fill-rule="evenodd" clip-rule="evenodd" d="M7 12V9.75H5.5V12.75C5.5 13.1642 5.83579 13.5 6.25 13.5H9.25V12H7Z" fill="#1028FF"/>
</svg>
